<?xml version="1.0" encoding="utf-8"?>
<!-- Generator: Adobe Illustrator 16.0.0, SVG Export Plug-In . SVG Version: 6.00 Build 0)  -->
<!DOCTYPE svg PUBLIC "-//W3C//DTD SVG 1.0//EN" "http://www.w3.org/TR/2001/REC-SVG-20010904/DTD/svg10.dtd">
<svg version="1.0" id="Layer_1" xmlns="http://www.w3.org/2000/svg" xmlns:xlink="http://www.w3.org/1999/xlink" x="0px" y="0px"
	 width="100px" height="100px" viewBox="0 0 100 100" enable-background="new 0 0 100 100" xml:space="preserve">
<path d="M76.667,40H70V26.667C70,17.461,62.539,10,53.333,10h-6.666C37.461,10,30,17.461,30,26.667V40h-6.667
	c-3.665,0-6.666,3.002-6.666,6.667v36.667c0,3.665,3.001,6.666,6.666,6.666h53.334c3.665,0,6.666-3.001,6.666-6.666V46.667
	C83.333,43.002,80.332,40,76.667,40z M53.333,65.742v10.925h-6.666V65.742c-1.986-1.152-3.334-3.281-3.334-5.742
	c0-3.678,2.985-6.666,6.667-6.666s6.667,2.988,6.667,6.666C56.667,62.461,55.319,64.59,53.333,65.742z M63.333,40H36.667V26.667
	c0-5.521,4.479-10,10-10h6.666c5.521,0,10,4.479,10,10V40z"/>
</svg>
