<?xml version="1.0" encoding="utf-8"?>
<!-- Generator: Adobe Illustrator 16.0.0, SVG Export Plug-In . SVG Version: 6.00 Build 0)  -->
<!DOCTYPE svg PUBLIC "-//W3C//DTD SVG 1.0//EN" "http://www.w3.org/TR/2001/REC-SVG-20010904/DTD/svg10.dtd">
<svg version="1.0" id="Layer_1" xmlns="http://www.w3.org/2000/svg" xmlns:xlink="http://www.w3.org/1999/xlink" x="0px" y="0px"
	 width="100px" height="100px" viewBox="0 0 100 100" enable-background="new 0 0 100 100" xml:space="preserve">
<path d="M73.327,33.568c0-0.078,0.006-0.156,0.006-0.234c0-12.884-10.449-23.333-23.333-23.333S26.667,20.45,26.667,33.334
	c0,0.078,0.006,0.156,0.006,0.234c-2.874,0.742-5.006,3.327-5.006,6.433v3.333c0,4.675,3.223,8.567,7.559,9.665
	C33.086,67.037,40.931,76.666,50,76.666s16.914-9.629,20.774-23.667c4.336-1.098,7.559-4.99,7.559-9.665v-3.333
	C78.333,36.896,76.201,34.311,73.327,33.568z"/>
<path d="M50,83.332c-4.912,0-9.567-1.855-13.685-5.267l-2.982,11.934h33.334l-2.985-11.934C59.567,81.477,54.912,83.332,50,83.332z"
	/>
</svg>
